# Blender v3.1.2 OBJ File: ''
# www.blender.org
mtllib bat_03.mtl
o b03_Plane.003
v -0.812500 0.000000 -0.187500
v -0.812500 0.000000 -0.250000
v -0.812500 0.000000 -0.312500
v -0.812500 0.000000 -0.375000
v -0.812500 0.000000 -0.437500
v -0.812500 0.000000 -0.500000
v -0.750000 0.000000 -0.125000
v -0.750000 0.000000 -0.187500
v -0.750000 0.000000 -0.250000
v -0.750000 0.000000 -0.312500
v -0.750000 0.000000 -0.375000
v -0.750000 0.000000 -0.437500
v -0.750000 0.000000 -0.500000
v -0.750000 0.000000 -0.562500
v -0.687500 0.000000 0.000000
v -0.687500 0.000000 -0.062500
v -0.687500 0.000000 -0.125000
v -0.687500 0.000000 -0.187500
v -0.687500 0.000000 -0.250000
v -0.687500 0.000000 -0.312500
v -0.687500 0.000000 -0.375000
v -0.687500 0.000000 -0.437500
v -0.687500 0.000000 -0.500000
v -0.687500 0.000000 -0.562500
v -0.625000 0.000000 0.062500
v -0.625000 0.000000 0.000000
v -0.625000 0.000000 -0.062500
v -0.625000 0.000000 -0.125000
v -0.625000 0.000000 -0.187500
v -0.625000 0.000000 -0.250000
v -0.625000 0.000000 -0.312500
v -0.625000 0.000000 -0.375000
v -0.625000 0.000000 -0.437500
v -0.625000 0.000000 -0.500000
v -0.625000 0.000000 -0.562500
v -0.562500 0.000000 0.062500
v -0.562500 0.000000 0.000000
v -0.562500 0.000000 -0.062500
v -0.562500 0.000000 -0.125000
v -0.562500 0.000000 -0.187500
v -0.562500 0.000000 -0.250000
v -0.562500 0.000000 -0.312500
v -0.562500 0.000000 -0.375000
v -0.562500 0.000000 -0.437500
v -0.562500 0.000000 -0.500000
v -0.500000 0.000000 0.062500
v -0.500000 0.000000 0.000000
v -0.500000 0.000000 -0.062500
v -0.500000 0.000000 -0.125000
v -0.500000 0.000000 -0.187500
v -0.500000 0.000000 -0.250000
v -0.500000 0.000000 -0.312500
v -0.500000 0.000000 -0.375000
v -0.437500 0.000000 0.062500
v -0.437500 0.000000 0.000000
v -0.437500 0.000000 -0.062500
v -0.437500 0.000000 -0.125000
v -0.437500 0.000000 -0.187500
v -0.437500 0.000000 -0.250000
v -0.437500 0.000000 -0.312500
v -0.437500 0.000000 -0.375000
v -0.375000 0.000000 0.062500
v -0.375000 0.000000 0.000000
v -0.375000 0.000000 -0.062500
v -0.375000 0.000000 -0.125000
v -0.375000 0.000000 -0.187500
v -0.375000 0.000000 -0.250000
v -0.375000 0.000000 -0.312500
v -0.312500 0.000000 0.062500
v -0.312500 0.000000 0.000000
v -0.312500 0.000000 -0.062500
v -0.312500 0.000000 -0.125000
v -0.312500 0.000000 -0.187500
v -0.312500 0.000000 -0.250000
v -0.250000 0.000000 0.062500
v -0.250000 0.000000 0.000000
v -0.250000 0.000000 -0.062500
v -0.250000 0.000000 -0.125000
v -0.250000 0.000000 -0.187500
v -0.250000 0.000000 -0.250000
v -0.187500 0.000000 0.062500
v -0.187500 0.000000 0.000000
v -0.187500 0.000000 -0.062500
v -0.187500 0.000000 -0.125000
v -0.187500 0.000000 -0.187500
v -0.125000 0.000000 0.125000
v -0.125000 0.000000 0.062500
v -0.125000 0.000000 0.000000
v -0.125000 0.000000 -0.062500
v -0.125000 0.000000 -0.125000
v -0.062500 0.000000 0.312500
v -0.062500 0.000000 0.250000
v -0.062500 0.000000 0.187500
v -0.062500 0.000000 0.125000
v -0.062500 0.000000 0.062500
v -0.062500 0.000000 0.000000
v -0.062500 0.000000 -0.062500
v -0.062500 0.000000 -0.125000
v 0.000000 0.000000 0.375000
v 0.000000 0.000000 0.312500
v 0.000000 0.000000 0.250000
v 0.000000 0.000000 0.187500
v 0.000000 0.000000 0.125000
v 0.000000 0.000000 0.062500
v 0.000000 0.000000 0.000000
v -0.000000 0.000000 -0.062500
v -0.000000 0.000000 -0.125000
v -0.000000 0.000000 -0.187500
v 0.062500 0.000000 0.375000
v 0.062500 0.000000 0.312500
v 0.062500 0.000000 0.250000
v 0.062500 0.000000 0.187500
v 0.062500 0.000000 0.125000
v 0.062500 0.000000 0.062500
v 0.062500 0.000000 -0.000000
v 0.062500 0.000000 -0.062500
v 0.062500 0.000000 -0.125000
v 0.062500 0.000000 -0.187500
v 0.125000 0.000000 0.312500
v 0.125000 0.000000 0.250000
v 0.125000 0.000000 0.187500
v 0.125000 0.000000 0.125000
v 0.125000 0.000000 0.062500
v 0.125000 0.000000 -0.000000
v 0.125000 0.000000 -0.062500
v 0.125000 0.000000 -0.125000
v 0.125000 0.000000 -0.187500
v 0.187500 0.000000 0.187500
v 0.187500 0.000000 0.125000
v 0.187500 0.000000 0.062500
v 0.187500 0.000000 -0.000000
v 0.187500 0.000000 -0.062500
v 0.187500 0.000000 -0.125000
v 0.187500 0.000000 -0.187500
v 0.250000 0.000000 0.312500
v 0.250000 0.000000 0.250000
v 0.250000 0.000000 0.187500
v 0.250000 0.000000 0.125000
v 0.250000 0.000000 0.062500
v 0.250000 0.000000 -0.000000
v 0.250000 0.000000 -0.062500
v 0.250000 0.000000 -0.125000
v 0.250000 0.000000 -0.187500
v 0.312500 0.000000 0.375000
v 0.312500 0.000000 0.312500
v 0.312500 0.000000 0.250000
v 0.312500 0.000000 0.187500
v 0.312500 0.000000 0.125000
v 0.312500 0.000000 0.062500
v 0.312500 0.000000 -0.000000
v 0.312500 0.000000 -0.062500
v 0.312500 0.000000 -0.125000
v 0.375000 0.000000 0.375000
v 0.375000 0.000000 0.312500
v 0.375000 0.000000 0.250000
v 0.375000 0.000000 0.187500
v 0.375000 0.000000 0.125000
v 0.375000 0.000000 0.062500
v 0.375000 0.000000 -0.000000
v 0.375000 0.000000 -0.062500
v 0.375000 0.000000 -0.125000
v 0.375000 0.000000 -0.187500
v 0.375000 0.000000 -0.250000
v 0.437500 0.000000 0.312500
v 0.437500 0.000000 0.250000
v 0.437500 0.000000 0.187500
v 0.437500 0.000000 0.125000
v 0.437500 0.000000 0.062500
v 0.437500 0.000000 -0.000000
v 0.437500 0.000000 -0.062500
v 0.437500 0.000000 -0.125000
v 0.437500 0.000000 -0.187500
v 0.437500 0.000000 -0.250000
v 0.437500 0.000000 -0.312500
v 0.437500 0.000000 -0.375000
v 0.500000 0.000000 0.187500
v 0.500000 0.000000 0.125000
v 0.500000 0.000000 0.062500
v 0.500000 0.000000 -0.000000
v 0.500000 0.000000 -0.062500
v 0.500000 0.000000 -0.125000
v 0.500000 0.000000 -0.187500
v 0.500000 0.000000 -0.250000
v 0.500000 0.000000 -0.312500
v 0.500000 0.000000 -0.375000
v 0.500000 0.000000 -0.437500
v 0.562500 0.000000 0.187500
v 0.562500 0.000000 0.125000
v 0.562500 0.000000 0.062500
v 0.562500 0.000000 -0.000000
v 0.562500 0.000000 -0.062500
v 0.562500 0.000000 -0.125000
v 0.562500 0.000000 -0.187500
v 0.562500 0.000000 -0.250000
v 0.562500 0.000000 -0.312500
v 0.562500 0.000000 -0.375000
v 0.562500 0.000000 -0.437500
v 0.625000 0.000000 0.187500
v 0.625000 0.000000 0.125000
v 0.625000 0.000000 0.062500
v 0.625000 0.000000 -0.000000
v 0.625000 0.000000 -0.062500
v 0.625000 0.000000 -0.125000
v 0.625000 0.000000 -0.187500
v 0.625000 0.000000 -0.250000
v 0.625000 0.000000 -0.312500
v 0.625000 0.000000 -0.375000
v 0.625000 0.000000 -0.437500
v 0.687500 0.000000 0.125000
v 0.687500 0.000000 0.062500
v 0.687500 0.000000 -0.000000
v 0.687500 0.000000 -0.062500
v 0.687500 0.000000 -0.125000
v 0.687500 0.000000 -0.187500
v 0.687500 0.000000 -0.250000
v 0.687500 0.000000 -0.312500
v 0.687500 0.000000 -0.375000
v 0.750000 0.000000 -0.000000
v 0.750000 0.000000 -0.062500
v 0.750000 0.000000 -0.125000
v 0.750000 0.000000 -0.187500
v 0.750000 0.000000 -0.250000
vt 0.125075 0.500000
vt 0.156319 0.468756
vt 0.156319 0.500000
vt 0.125075 0.468756
vt 0.156319 0.437512
vt 0.125075 0.437512
vt 0.156319 0.406269
vt 0.125075 0.406269
vt 0.156319 0.375025
vt 0.156319 0.562487
vt 0.187562 0.531244
vt 0.187562 0.562487
vt 0.156319 0.531244
vt 0.187562 0.500000
vt 0.187562 0.468756
vt 0.187562 0.437512
vt 0.187562 0.406269
vt 0.187562 0.375025
vt 0.187562 0.343781
vt 0.156319 0.343781
vt 0.187562 0.312537
vt 0.187562 0.593731
vt 0.218806 0.562487
vt 0.218806 0.593731
vt 0.218806 0.531244
vt 0.218806 0.500000
vt 0.218806 0.468756
vt 0.218806 0.437512
vt 0.218806 0.406269
vt 0.218806 0.375025
vt 0.218806 0.343781
vt 0.218806 0.312537
vt 0.218806 0.281294
vt 0.250050 0.562487
vt 0.250050 0.593731
vt 0.250050 0.531244
vt 0.250050 0.500000
vt 0.250050 0.468756
vt 0.250050 0.437512
vt 0.250050 0.406269
vt 0.250050 0.375025
vt 0.250050 0.343781
vt 0.250050 0.312537
vt 0.250050 0.281294
vt 0.281294 0.531244
vt 0.281294 0.562487
vt 0.281294 0.500000
vt 0.281294 0.468756
vt 0.281294 0.437512
vt 0.281294 0.406269
vt 0.281294 0.375025
vt 0.281294 0.343781
vt 0.281294 0.312537
vt 0.281294 0.656219
vt 0.312537 0.624975
vt 0.312537 0.656219
vt 0.281294 0.624975
vt 0.312537 0.593731
vt 0.281294 0.593731
vt 0.312537 0.562487
vt 0.312537 0.531244
vt 0.312537 0.500000
vt 0.312537 0.468756
vt 0.312537 0.437512
vt 0.312537 0.406269
vt 0.312537 0.375025
vt 0.312537 0.687462
vt 0.343781 0.656219
vt 0.343781 0.687462
vt 0.343781 0.624975
vt 0.343781 0.593731
vt 0.343781 0.562487
vt 0.343781 0.531244
vt 0.343781 0.500000
vt 0.343781 0.468756
vt 0.343781 0.437512
vt 0.375025 0.624975
vt 0.375025 0.656219
vt 0.375025 0.593731
vt 0.375025 0.562487
vt 0.375025 0.531244
vt 0.375025 0.500000
vt 0.375025 0.468756
vt 0.375025 0.437512
vt 0.406269 0.562487
vt 0.406269 0.593731
vt 0.406269 0.531244
vt 0.406269 0.500000
vt 0.406269 0.468756
vt 0.406269 0.437512
vt 0.406269 0.406269
vt 0.437512 0.562487
vt 0.437512 0.593731
vt 0.437512 0.531244
vt 0.437512 0.500000
vt 0.437512 0.468756
vt 0.437512 0.437512
vt 0.437512 0.406269
vt 0.437512 0.656219
vt 0.468756 0.624975
vt 0.468756 0.656219
vt 0.437512 0.624975
vt 0.468756 0.593731
vt 0.468756 0.562487
vt 0.468756 0.531244
vt 0.468756 0.500000
vt 0.468756 0.468756
vt 0.468756 0.437512
vt 0.468756 0.406269
vt 0.468756 0.687462
vt 0.500000 0.656219
vt 0.500000 0.687462
vt 0.500000 0.624975
vt 0.500000 0.593731
vt 0.500000 0.562487
vt 0.500000 0.531244
vt 0.500000 0.500000
vt 0.500000 0.468756
vt 0.500000 0.437512
vt 0.500000 0.406269
vt 0.531244 0.624975
vt 0.531244 0.656219
vt 0.531244 0.593731
vt 0.531244 0.562487
vt 0.531244 0.531244
vt 0.531244 0.500000
vt 0.531244 0.468756
vt 0.531244 0.437512
vt 0.562487 0.531244
vt 0.562487 0.562487
vt 0.562487 0.500000
vt 0.562487 0.468756
vt 0.562487 0.437512
vt 0.593731 0.500000
vt 0.593731 0.531244
vt 0.593731 0.468756
vt 0.593731 0.437512
vt 0.624975 0.500000
vt 0.624975 0.531244
vt 0.624975 0.468756
vt 0.624975 0.437512
vt 0.624975 0.406269
vt 0.656219 0.500000
vt 0.656219 0.531244
vt 0.656219 0.468756
vt 0.656219 0.437512
vt 0.656219 0.406269
vt 0.656219 0.375025
vt 0.687462 0.500000
vt 0.687462 0.531244
vt 0.687462 0.468756
vt 0.687462 0.437512
vt 0.687462 0.406269
vt 0.687462 0.375025
vt 0.718706 0.500000
vt 0.718706 0.531244
vt 0.718706 0.468756
vt 0.718706 0.437512
vt 0.718706 0.406269
vt 0.718706 0.375025
vt 0.718706 0.343781
vt 0.749950 0.500000
vt 0.749950 0.531244
vt 0.749950 0.468756
vt 0.749950 0.437512
vt 0.749950 0.406269
vt 0.749950 0.375025
vt 0.749950 0.343781
vt 0.749950 0.312537
vt 0.781194 0.500000
vt 0.781194 0.531244
vt 0.781194 0.468756
vt 0.781194 0.437512
vt 0.781194 0.406269
vt 0.781194 0.375025
vt 0.781194 0.343781
vt 0.781194 0.312537
vt 0.812437 0.500000
vt 0.812437 0.531244
vt 0.812437 0.468756
vt 0.812437 0.437512
vt 0.812437 0.406269
vt 0.812437 0.375025
vt 0.812437 0.343781
vt 0.812437 0.312537
vt 0.812437 0.281294
vt 0.781194 0.281294
vt 0.812437 0.250050
vt 0.843681 0.468756
vt 0.843681 0.500000
vt 0.843681 0.437512
vt 0.843681 0.406269
vt 0.843681 0.375025
vt 0.843681 0.343781
vt 0.843681 0.312537
vt 0.843681 0.281294
vt 0.843681 0.250050
vt 0.843681 0.218806
vt 0.874925 0.406269
vt 0.874925 0.437512
vt 0.874925 0.375025
vt 0.874925 0.343781
vt 0.874925 0.312537
vt 0.874925 0.281294
vt 0.874925 0.250050
vt 0.874925 0.218806
vt 0.906169 0.375025
vt 0.906169 0.406269
vt 0.906169 0.343781
vt 0.906169 0.312537
vt 0.906169 0.281294
vt 0.906169 0.250050
vt 0.125075 0.375025
vt 0.156319 0.312537
vt 0.187562 0.281294
vt 0.375025 0.406269
vt 0.593731 0.406269
vt 0.624975 0.375025
vt 0.687462 0.343781
vt 0.718706 0.312537
vt 0.781194 0.250050
vt 0.812437 0.218806
vn 0.0000 1.0000 0.0000
g b03_Plane.003_Material.004
usemtl Material.004
s off
f 218/1/1 212/2/1 211/3/1
f 219/4/1 213/5/1 212/2/1
f 220/6/1 214/7/1 213/5/1
f 221/8/1 215/9/1 214/7/1
f 209/10/1 200/11/1 199/12/1
f 210/13/1 201/14/1 200/11/1
f 211/3/1 202/15/1 201/14/1
f 212/2/1 203/16/1 202/15/1
f 213/5/1 204/17/1 203/16/1
f 214/7/1 205/18/1 204/17/1
f 215/9/1 206/19/1 205/18/1
f 216/20/1 207/21/1 206/19/1
f 198/22/1 188/23/1 187/24/1
f 199/12/1 189/25/1 188/23/1
f 200/11/1 190/26/1 189/25/1
f 201/14/1 191/27/1 190/26/1
f 202/15/1 192/28/1 191/27/1
f 203/16/1 193/29/1 192/28/1
f 204/17/1 194/30/1 193/29/1
f 205/18/1 195/31/1 194/30/1
f 206/19/1 196/32/1 195/31/1
f 207/21/1 197/33/1 196/32/1
f 187/24/1 177/34/1 176/35/1
f 188/23/1 178/36/1 177/34/1
f 189/25/1 179/37/1 178/36/1
f 190/26/1 180/38/1 179/37/1
f 191/27/1 181/39/1 180/38/1
f 192/28/1 182/40/1 181/39/1
f 193/29/1 183/41/1 182/40/1
f 194/30/1 184/42/1 183/41/1
f 195/31/1 185/43/1 184/42/1
f 196/32/1 186/44/1 185/43/1
f 177/34/1 168/45/1 167/46/1
f 178/36/1 169/47/1 168/45/1
f 179/37/1 170/48/1 169/47/1
f 180/38/1 171/49/1 170/48/1
f 181/39/1 172/50/1 171/49/1
f 182/40/1 173/51/1 172/50/1
f 183/41/1 174/52/1 173/51/1
f 184/42/1 175/53/1 174/52/1
f 164/54/1 155/55/1 154/56/1
f 165/57/1 156/58/1 155/55/1
f 166/59/1 157/60/1 156/58/1
f 167/46/1 158/61/1 157/60/1
f 168/45/1 159/62/1 158/61/1
f 169/47/1 160/63/1 159/62/1
f 170/48/1 161/64/1 160/63/1
f 171/49/1 162/65/1 161/64/1
f 172/50/1 163/66/1 162/65/1
f 153/67/1 145/68/1 144/69/1
f 154/56/1 146/70/1 145/68/1
f 155/55/1 147/71/1 146/70/1
f 156/58/1 148/72/1 147/71/1
f 157/60/1 149/73/1 148/72/1
f 158/61/1 150/74/1 149/73/1
f 159/62/1 151/75/1 150/74/1
f 160/63/1 152/76/1 151/75/1
f 145/68/1 136/77/1 135/78/1
f 146/70/1 137/79/1 136/77/1
f 147/71/1 138/80/1 137/79/1
f 148/72/1 139/81/1 138/80/1
f 149/73/1 140/82/1 139/81/1
f 150/74/1 141/83/1 140/82/1
f 151/75/1 142/84/1 141/83/1
f 137/79/1 129/85/1 128/86/1
f 138/80/1 130/87/1 129/85/1
f 139/81/1 131/88/1 130/87/1
f 140/82/1 132/89/1 131/88/1
f 141/83/1 133/90/1 132/89/1
f 142/84/1 134/91/1 133/90/1
f 128/86/1 122/92/1 121/93/1
f 129/85/1 123/94/1 122/92/1
f 130/87/1 124/95/1 123/94/1
f 131/88/1 125/96/1 124/95/1
f 132/89/1 126/97/1 125/96/1
f 133/90/1 127/98/1 126/97/1
f 119/99/1 111/100/1 110/101/1
f 120/102/1 112/103/1 111/100/1
f 121/93/1 113/104/1 112/103/1
f 122/92/1 114/105/1 113/104/1
f 123/94/1 115/106/1 114/105/1
f 124/95/1 116/107/1 115/106/1
f 125/96/1 117/108/1 116/107/1
f 126/97/1 118/109/1 117/108/1
f 109/110/1 100/111/1 99/112/1
f 110/101/1 101/113/1 100/111/1
f 111/100/1 102/114/1 101/113/1
f 112/103/1 103/115/1 102/114/1
f 113/104/1 104/116/1 103/115/1
f 114/105/1 105/117/1 104/116/1
f 115/106/1 106/118/1 105/117/1
f 116/107/1 107/119/1 106/118/1
f 117/108/1 108/120/1 107/119/1
f 100/111/1 92/121/1 91/122/1
f 101/113/1 93/123/1 92/121/1
f 102/114/1 94/124/1 93/123/1
f 103/115/1 95/125/1 94/124/1
f 104/116/1 96/126/1 95/125/1
f 105/117/1 97/127/1 96/126/1
f 106/118/1 98/128/1 97/127/1
f 94/124/1 87/129/1 86/130/1
f 95/125/1 88/131/1 87/129/1
f 96/126/1 89/132/1 88/131/1
f 97/127/1 90/133/1 89/132/1
f 87/129/1 82/134/1 81/135/1
f 88/131/1 83/136/1 82/134/1
f 89/132/1 84/137/1 83/136/1
f 81/135/1 76/138/1 75/139/1
f 82/134/1 77/140/1 76/138/1
f 83/136/1 78/141/1 77/140/1
f 84/137/1 79/142/1 78/141/1
f 75/139/1 70/143/1 69/144/1
f 76/138/1 71/145/1 70/143/1
f 77/140/1 72/146/1 71/145/1
f 78/141/1 73/147/1 72/146/1
f 79/142/1 74/148/1 73/147/1
f 69/144/1 63/149/1 62/150/1
f 70/143/1 64/151/1 63/149/1
f 71/145/1 65/152/1 64/151/1
f 72/146/1 66/153/1 65/152/1
f 73/147/1 67/154/1 66/153/1
f 62/150/1 55/155/1 54/156/1
f 63/149/1 56/157/1 55/155/1
f 64/151/1 57/158/1 56/157/1
f 65/152/1 58/159/1 57/158/1
f 66/153/1 59/160/1 58/159/1
f 67/154/1 60/161/1 59/160/1
f 54/156/1 47/162/1 46/163/1
f 55/155/1 48/164/1 47/162/1
f 56/157/1 49/165/1 48/164/1
f 57/158/1 50/166/1 49/165/1
f 58/159/1 51/167/1 50/166/1
f 59/160/1 52/168/1 51/167/1
f 60/161/1 53/169/1 52/168/1
f 46/163/1 37/170/1 36/171/1
f 47/162/1 38/172/1 37/170/1
f 48/164/1 39/173/1 38/172/1
f 49/165/1 40/174/1 39/173/1
f 50/166/1 41/175/1 40/174/1
f 51/167/1 42/176/1 41/175/1
f 52/168/1 43/177/1 42/176/1
f 36/171/1 26/178/1 25/179/1
f 37/170/1 27/180/1 26/178/1
f 38/172/1 28/181/1 27/180/1
f 39/173/1 29/182/1 28/181/1
f 40/174/1 30/183/1 29/182/1
f 41/175/1 31/184/1 30/183/1
f 42/176/1 32/185/1 31/184/1
f 43/177/1 33/186/1 32/185/1
f 44/187/1 34/188/1 33/186/1
f 26/178/1 16/189/1 15/190/1
f 27/180/1 17/191/1 16/189/1
f 28/181/1 18/192/1 17/191/1
f 29/182/1 19/193/1 18/192/1
f 30/183/1 20/194/1 19/193/1
f 31/184/1 21/195/1 20/194/1
f 32/185/1 22/196/1 21/195/1
f 33/186/1 23/197/1 22/196/1
f 34/188/1 24/198/1 23/197/1
f 17/191/1 8/199/1 7/200/1
f 18/192/1 9/201/1 8/199/1
f 19/193/1 10/202/1 9/201/1
f 20/194/1 11/203/1 10/202/1
f 21/195/1 12/204/1 11/203/1
f 22/196/1 13/205/1 12/204/1
f 23/197/1 14/206/1 13/205/1
f 8/199/1 2/207/1 1/208/1
f 9/201/1 3/209/1 2/207/1
f 10/202/1 4/210/1 3/209/1
f 11/203/1 5/211/1 4/210/1
f 12/204/1 6/212/1 5/211/1
f 218/1/1 219/4/1 212/2/1
f 219/4/1 220/6/1 213/5/1
f 220/6/1 221/8/1 214/7/1
f 221/8/1 222/213/1 215/9/1
f 209/10/1 210/13/1 200/11/1
f 210/13/1 211/3/1 201/14/1
f 211/3/1 212/2/1 202/15/1
f 212/2/1 213/5/1 203/16/1
f 213/5/1 214/7/1 204/17/1
f 214/7/1 215/9/1 205/18/1
f 215/9/1 216/20/1 206/19/1
f 216/20/1 217/214/1 207/21/1
f 198/22/1 199/12/1 188/23/1
f 199/12/1 200/11/1 189/25/1
f 200/11/1 201/14/1 190/26/1
f 201/14/1 202/15/1 191/27/1
f 202/15/1 203/16/1 192/28/1
f 203/16/1 204/17/1 193/29/1
f 204/17/1 205/18/1 194/30/1
f 205/18/1 206/19/1 195/31/1
f 206/19/1 207/21/1 196/32/1
f 207/21/1 208/215/1 197/33/1
f 187/24/1 188/23/1 177/34/1
f 188/23/1 189/25/1 178/36/1
f 189/25/1 190/26/1 179/37/1
f 190/26/1 191/27/1 180/38/1
f 191/27/1 192/28/1 181/39/1
f 192/28/1 193/29/1 182/40/1
f 193/29/1 194/30/1 183/41/1
f 194/30/1 195/31/1 184/42/1
f 195/31/1 196/32/1 185/43/1
f 196/32/1 197/33/1 186/44/1
f 177/34/1 178/36/1 168/45/1
f 178/36/1 179/37/1 169/47/1
f 179/37/1 180/38/1 170/48/1
f 180/38/1 181/39/1 171/49/1
f 181/39/1 182/40/1 172/50/1
f 182/40/1 183/41/1 173/51/1
f 183/41/1 184/42/1 174/52/1
f 184/42/1 185/43/1 175/53/1
f 164/54/1 165/57/1 155/55/1
f 165/57/1 166/59/1 156/58/1
f 166/59/1 167/46/1 157/60/1
f 167/46/1 168/45/1 158/61/1
f 168/45/1 169/47/1 159/62/1
f 169/47/1 170/48/1 160/63/1
f 170/48/1 171/49/1 161/64/1
f 171/49/1 172/50/1 162/65/1
f 172/50/1 173/51/1 163/66/1
f 153/67/1 154/56/1 145/68/1
f 154/56/1 155/55/1 146/70/1
f 155/55/1 156/58/1 147/71/1
f 156/58/1 157/60/1 148/72/1
f 157/60/1 158/61/1 149/73/1
f 158/61/1 159/62/1 150/74/1
f 159/62/1 160/63/1 151/75/1
f 160/63/1 161/64/1 152/76/1
f 145/68/1 146/70/1 136/77/1
f 146/70/1 147/71/1 137/79/1
f 147/71/1 148/72/1 138/80/1
f 148/72/1 149/73/1 139/81/1
f 149/73/1 150/74/1 140/82/1
f 150/74/1 151/75/1 141/83/1
f 151/75/1 152/76/1 142/84/1
f 137/79/1 138/80/1 129/85/1
f 138/80/1 139/81/1 130/87/1
f 139/81/1 140/82/1 131/88/1
f 140/82/1 141/83/1 132/89/1
f 141/83/1 142/84/1 133/90/1
f 142/84/1 143/216/1 134/91/1
f 128/86/1 129/85/1 122/92/1
f 129/85/1 130/87/1 123/94/1
f 130/87/1 131/88/1 124/95/1
f 131/88/1 132/89/1 125/96/1
f 132/89/1 133/90/1 126/97/1
f 133/90/1 134/91/1 127/98/1
f 119/99/1 120/102/1 111/100/1
f 120/102/1 121/93/1 112/103/1
f 121/93/1 122/92/1 113/104/1
f 122/92/1 123/94/1 114/105/1
f 123/94/1 124/95/1 115/106/1
f 124/95/1 125/96/1 116/107/1
f 125/96/1 126/97/1 117/108/1
f 126/97/1 127/98/1 118/109/1
f 109/110/1 110/101/1 100/111/1
f 110/101/1 111/100/1 101/113/1
f 111/100/1 112/103/1 102/114/1
f 112/103/1 113/104/1 103/115/1
f 113/104/1 114/105/1 104/116/1
f 114/105/1 115/106/1 105/117/1
f 115/106/1 116/107/1 106/118/1
f 116/107/1 117/108/1 107/119/1
f 117/108/1 118/109/1 108/120/1
f 100/111/1 101/113/1 92/121/1
f 101/113/1 102/114/1 93/123/1
f 102/114/1 103/115/1 94/124/1
f 103/115/1 104/116/1 95/125/1
f 104/116/1 105/117/1 96/126/1
f 105/117/1 106/118/1 97/127/1
f 106/118/1 107/119/1 98/128/1
f 94/124/1 95/125/1 87/129/1
f 95/125/1 96/126/1 88/131/1
f 96/126/1 97/127/1 89/132/1
f 97/127/1 98/128/1 90/133/1
f 87/129/1 88/131/1 82/134/1
f 88/131/1 89/132/1 83/136/1
f 89/132/1 90/133/1 84/137/1
f 81/135/1 82/134/1 76/138/1
f 82/134/1 83/136/1 77/140/1
f 83/136/1 84/137/1 78/141/1
f 84/137/1 85/217/1 79/142/1
f 75/139/1 76/138/1 70/143/1
f 76/138/1 77/140/1 71/145/1
f 77/140/1 78/141/1 72/146/1
f 78/141/1 79/142/1 73/147/1
f 79/142/1 80/218/1 74/148/1
f 69/144/1 70/143/1 63/149/1
f 70/143/1 71/145/1 64/151/1
f 71/145/1 72/146/1 65/152/1
f 72/146/1 73/147/1 66/153/1
f 73/147/1 74/148/1 67/154/1
f 62/150/1 63/149/1 55/155/1
f 63/149/1 64/151/1 56/157/1
f 64/151/1 65/152/1 57/158/1
f 65/152/1 66/153/1 58/159/1
f 66/153/1 67/154/1 59/160/1
f 67/154/1 68/219/1 60/161/1
f 54/156/1 55/155/1 47/162/1
f 55/155/1 56/157/1 48/164/1
f 56/157/1 57/158/1 49/165/1
f 57/158/1 58/159/1 50/166/1
f 58/159/1 59/160/1 51/167/1
f 59/160/1 60/161/1 52/168/1
f 60/161/1 61/220/1 53/169/1
f 46/163/1 47/162/1 37/170/1
f 47/162/1 48/164/1 38/172/1
f 48/164/1 49/165/1 39/173/1
f 49/165/1 50/166/1 40/174/1
f 50/166/1 51/167/1 41/175/1
f 51/167/1 52/168/1 42/176/1
f 52/168/1 53/169/1 43/177/1
f 36/171/1 37/170/1 26/178/1
f 37/170/1 38/172/1 27/180/1
f 38/172/1 39/173/1 28/181/1
f 39/173/1 40/174/1 29/182/1
f 40/174/1 41/175/1 30/183/1
f 41/175/1 42/176/1 31/184/1
f 42/176/1 43/177/1 32/185/1
f 43/177/1 44/187/1 33/186/1
f 44/187/1 45/221/1 34/188/1
f 26/178/1 27/180/1 16/189/1
f 27/180/1 28/181/1 17/191/1
f 28/181/1 29/182/1 18/192/1
f 29/182/1 30/183/1 19/193/1
f 30/183/1 31/184/1 20/194/1
f 31/184/1 32/185/1 21/195/1
f 32/185/1 33/186/1 22/196/1
f 33/186/1 34/188/1 23/197/1
f 34/188/1 35/222/1 24/198/1
f 17/191/1 18/192/1 8/199/1
f 18/192/1 19/193/1 9/201/1
f 19/193/1 20/194/1 10/202/1
f 20/194/1 21/195/1 11/203/1
f 21/195/1 22/196/1 12/204/1
f 22/196/1 23/197/1 13/205/1
f 23/197/1 24/198/1 14/206/1
f 8/199/1 9/201/1 2/207/1
f 9/201/1 10/202/1 3/209/1
f 10/202/1 11/203/1 4/210/1
f 11/203/1 12/204/1 5/211/1
f 12/204/1 13/205/1 6/212/1
