# Blender v3.1.2 OBJ File: 'enemies.blend'
# www.blender.org
mtllib bullet_Medium.mtl
o Bullet_Plane.010
v -1.879399 0.000000 -1.546889
v -1.908354 0.000000 -1.546889
v -1.937308 0.000000 -1.546889
v -1.966263 0.000000 -1.546889
v -1.995217 0.000000 -1.546889
v -2.024171 0.000000 -1.546889
v -2.053126 0.000000 -1.546889
v -2.082080 0.000000 -1.546889
v -1.821491 0.000000 -1.575843
v -1.850445 0.000000 -1.575843
v -1.879399 0.000000 -1.575843
v -1.908354 0.000000 -1.575843
v -1.937308 0.000000 -1.575843
v -1.966263 0.000000 -1.575843
v -1.995217 0.000000 -1.575843
v -2.024171 0.000000 -1.575843
v -2.053126 0.000000 -1.575843
v -2.082080 0.000000 -1.575843
v -2.111034 0.000000 -1.575843
v -1.763582 0.000000 -1.604797
v -1.792536 0.000000 -1.604797
v -1.821491 0.000000 -1.604797
v -1.850445 0.000000 -1.604797
v -1.879399 0.000000 -1.604797
v -1.908354 0.000000 -1.604797
v -1.937308 0.000000 -1.604797
v -1.966263 0.000000 -1.604797
v -1.995217 0.000000 -1.604797
v -2.024171 0.000000 -1.604797
v -2.053126 0.000000 -1.604797
v -2.082080 0.000000 -1.604797
v -2.111034 0.000000 -1.604797
v -2.139989 0.000000 -1.604797
v -1.705673 0.000000 -1.633752
v -1.734628 0.000000 -1.633752
v -1.763582 0.000000 -1.633752
v -1.792536 0.000000 -1.633752
v -1.821491 0.000000 -1.633752
v -1.850445 0.000000 -1.633752
v -1.879399 0.000000 -1.633752
v -1.908354 0.000000 -1.633752
v -1.937308 0.000000 -1.633752
v -1.966263 0.000000 -1.633752
v -1.995217 0.000000 -1.633752
v -2.024171 0.000000 -1.633752
v -2.053126 0.000000 -1.633752
v -2.082080 0.000000 -1.633752
v -2.111034 0.000000 -1.633752
v -2.139989 0.000000 -1.633752
v -1.676719 0.000000 -1.662706
v -1.705673 0.000000 -1.662706
v -1.734628 0.000000 -1.662706
v -1.763582 0.000000 -1.662706
v -1.792536 0.000000 -1.662706
v -1.821491 0.000000 -1.662706
v -1.850445 0.000000 -1.662706
v -1.879399 0.000000 -1.662706
v -1.908354 0.000000 -1.662706
v -1.937308 0.000000 -1.662706
v -1.966263 0.000000 -1.662706
v -1.995217 0.000000 -1.662706
v -2.024171 0.000000 -1.662706
v -2.053126 0.000000 -1.662706
v -2.082080 0.000000 -1.662706
v -2.111034 0.000000 -1.662706
v -2.139989 0.000000 -1.662706
v -2.168943 0.000000 -1.662706
v -1.676719 0.000000 -1.691661
v -1.705673 0.000000 -1.691661
v -1.734628 0.000000 -1.691661
v -1.763582 0.000000 -1.691661
v -1.792536 0.000000 -1.691661
v -1.821491 0.000000 -1.691661
v -1.850445 0.000000 -1.691661
v -1.879399 0.000000 -1.691661
v -1.908354 0.000000 -1.691661
v -1.937308 0.000000 -1.691661
v -1.966263 0.000000 -1.691661
v -1.995217 0.000000 -1.691661
v -2.024171 0.000000 -1.691661
v -2.053126 0.000000 -1.691661
v -2.082080 0.000000 -1.691661
v -2.111034 0.000000 -1.691661
v -2.139989 0.000000 -1.691661
v -2.168943 0.000000 -1.691661
v -1.676719 0.000000 -1.720615
v -1.705673 0.000000 -1.720615
v -1.734628 0.000000 -1.720615
v -1.763582 0.000000 -1.720615
v -1.792536 0.000000 -1.720615
v -1.821491 0.000000 -1.720615
v -1.850445 0.000000 -1.720615
v -1.879399 0.000000 -1.720615
v -1.908354 0.000000 -1.720615
v -1.937308 0.000000 -1.720615
v -1.966263 0.000000 -1.720615
v -1.995217 0.000000 -1.720615
v -2.024171 0.000000 -1.720615
v -2.053126 0.000000 -1.720615
v -2.082080 0.000000 -1.720615
v -2.111034 0.000000 -1.720615
v -2.139989 0.000000 -1.720615
v -2.168943 0.000000 -1.720615
v -1.705673 0.000000 -1.749569
v -1.734628 0.000000 -1.749569
v -1.763582 0.000000 -1.749569
v -1.792536 0.000000 -1.749569
v -1.821491 0.000000 -1.749569
v -1.850445 0.000000 -1.749569
v -1.879399 0.000000 -1.749569
v -1.908354 0.000000 -1.749569
v -1.937308 0.000000 -1.749569
v -1.966263 0.000000 -1.749569
v -1.995217 0.000000 -1.749569
v -2.024171 0.000000 -1.749569
v -2.053126 0.000000 -1.749569
v -2.082080 0.000000 -1.749569
v -2.111034 0.000000 -1.749569
v -2.139989 0.000000 -1.749569
v -1.763582 0.000000 -1.778524
v -1.792536 0.000000 -1.778524
v -1.821491 0.000000 -1.778524
v -1.850445 0.000000 -1.778524
v -1.879399 0.000000 -1.778524
v -1.908354 0.000000 -1.778524
v -1.937308 0.000000 -1.778524
v -1.966263 0.000000 -1.778524
v -1.995217 0.000000 -1.778524
v -2.024171 0.000000 -1.778524
v -2.053126 0.000000 -1.778524
v -2.082080 0.000000 -1.778524
v -2.111034 0.000000 -1.778524
v -2.139989 0.000000 -1.778524
v -1.821491 0.000000 -1.807478
v -1.850445 0.000000 -1.807478
v -1.879399 0.000000 -1.807478
v -1.908354 0.000000 -1.807478
v -1.937308 0.000000 -1.807478
v -1.966263 0.000000 -1.807478
v -1.995217 0.000000 -1.807478
v -2.024171 0.000000 -1.807478
v -2.053126 0.000000 -1.807478
v -2.082080 0.000000 -1.807478
v -2.111034 0.000000 -1.807478
v -1.879399 0.000000 -1.836432
v -1.908354 0.000000 -1.836432
v -1.937308 0.000000 -1.836432
v -1.966263 0.000000 -1.836432
v -1.995217 0.000000 -1.836432
v -2.024171 0.000000 -1.836432
v -2.053126 0.000000 -1.836432
v -2.082080 0.000000 -1.836432
vt 0.343781 0.531244
vt 0.375025 0.500000
vt 0.375025 0.531244
vt 0.343781 0.500000
vt 0.375025 0.468756
vt 0.343781 0.468756
vt 0.375025 0.437512
vt 0.343781 0.437512
vt 0.375025 0.406269
vt 0.343781 0.406269
vt 0.375025 0.375025
vt 0.343781 0.375025
vt 0.375025 0.343781
vt 0.343781 0.343781
vt 0.375025 0.312537
vt 0.375025 0.593731
vt 0.406269 0.562487
vt 0.406269 0.593731
vt 0.375025 0.562487
vt 0.406269 0.531244
vt 0.406269 0.500000
vt 0.406269 0.468756
vt 0.406269 0.437512
vt 0.406269 0.406269
vt 0.406269 0.375025
vt 0.406269 0.343781
vt 0.406269 0.312537
vt 0.406269 0.281294
vt 0.406269 0.656219
vt 0.437512 0.624975
vt 0.437512 0.656219
vt 0.406269 0.624975
vt 0.437512 0.593731
vt 0.437512 0.562487
vt 0.437512 0.531244
vt 0.437512 0.500000
vt 0.437512 0.468756
vt 0.437512 0.437512
vt 0.437512 0.406269
vt 0.437512 0.375025
vt 0.437512 0.343781
vt 0.437512 0.312537
vt 0.437512 0.281294
vt 0.437512 0.250050
vt 0.437512 0.718706
vt 0.468756 0.687462
vt 0.468756 0.718706
vt 0.437512 0.687462
vt 0.468756 0.656219
vt 0.468756 0.624975
vt 0.468756 0.593731
vt 0.468756 0.562487
vt 0.468756 0.531244
vt 0.468756 0.500000
vt 0.468756 0.468756
vt 0.468756 0.437512
vt 0.468756 0.406269
vt 0.468756 0.375025
vt 0.468756 0.343781
vt 0.468756 0.312537
vt 0.468756 0.281294
vt 0.468756 0.250050
vt 0.468756 0.749950
vt 0.500000 0.718706
vt 0.500000 0.749950
vt 0.500000 0.687462
vt 0.500000 0.656219
vt 0.500000 0.624975
vt 0.500000 0.593731
vt 0.500000 0.562487
vt 0.500000 0.531244
vt 0.500000 0.500000
vt 0.500000 0.468756
vt 0.500000 0.437512
vt 0.500000 0.406269
vt 0.500000 0.375025
vt 0.500000 0.343781
vt 0.500000 0.312537
vt 0.500000 0.281294
vt 0.500000 0.250050
vt 0.500000 0.218806
vt 0.531244 0.718706
vt 0.531244 0.749950
vt 0.531244 0.687462
vt 0.531244 0.656219
vt 0.531244 0.624975
vt 0.531244 0.593731
vt 0.531244 0.562487
vt 0.531244 0.531244
vt 0.531244 0.500000
vt 0.531244 0.468756
vt 0.531244 0.437512
vt 0.531244 0.406269
vt 0.531244 0.375025
vt 0.531244 0.343781
vt 0.531244 0.312537
vt 0.531244 0.281294
vt 0.531244 0.250050
vt 0.531244 0.218806
vt 0.562487 0.687462
vt 0.562487 0.718706
vt 0.562487 0.656219
vt 0.562487 0.624975
vt 0.562487 0.593731
vt 0.562487 0.562487
vt 0.562487 0.531244
vt 0.562487 0.500000
vt 0.562487 0.468756
vt 0.562487 0.437512
vt 0.562487 0.406269
vt 0.562487 0.375025
vt 0.562487 0.343781
vt 0.562487 0.312537
vt 0.562487 0.281294
vt 0.562487 0.250050
vt 0.593731 0.624975
vt 0.593731 0.656219
vt 0.593731 0.593731
vt 0.593731 0.562487
vt 0.593731 0.531244
vt 0.593731 0.500000
vt 0.593731 0.468756
vt 0.593731 0.437512
vt 0.593731 0.406269
vt 0.593731 0.375025
vt 0.593731 0.343781
vt 0.593731 0.312537
vt 0.593731 0.281294
vt 0.593731 0.250050
vt 0.624975 0.562487
vt 0.624975 0.593731
vt 0.624975 0.531244
vt 0.624975 0.500000
vt 0.624975 0.468756
vt 0.624975 0.437512
vt 0.624975 0.406269
vt 0.624975 0.375025
vt 0.624975 0.343781
vt 0.624975 0.312537
vt 0.624975 0.281294
vt 0.656219 0.500000
vt 0.656219 0.531244
vt 0.656219 0.468756
vt 0.656219 0.437512
vt 0.656219 0.406269
vt 0.656219 0.375025
vt 0.656219 0.343781
vt 0.656219 0.312537
vt 0.343781 0.312537
vt 0.375025 0.281294
vt 0.406269 0.250050
vt 0.468756 0.218806
vn 0.0000 1.0000 0.0000
g Bullet_Plane.010_Material.012
usemtl Material.012
s off
f 145/1/1 137/2/1 136/3/1
f 146/4/1 138/5/1 137/2/1
f 147/6/1 139/7/1 138/5/1
f 148/8/1 140/9/1 139/7/1
f 149/10/1 141/11/1 140/9/1
f 150/12/1 142/13/1 141/11/1
f 151/14/1 143/15/1 142/13/1
f 134/16/1 123/17/1 122/18/1
f 135/19/1 124/20/1 123/17/1
f 136/3/1 125/21/1 124/20/1
f 137/2/1 126/22/1 125/21/1
f 138/5/1 127/23/1 126/22/1
f 139/7/1 128/24/1 127/23/1
f 140/9/1 129/25/1 128/24/1
f 141/11/1 130/26/1 129/25/1
f 142/13/1 131/27/1 130/26/1
f 143/15/1 132/28/1 131/27/1
f 120/29/1 107/30/1 106/31/1
f 121/32/1 108/33/1 107/30/1
f 122/18/1 109/34/1 108/33/1
f 123/17/1 110/35/1 109/34/1
f 124/20/1 111/36/1 110/35/1
f 125/21/1 112/37/1 111/36/1
f 126/22/1 113/38/1 112/37/1
f 127/23/1 114/39/1 113/38/1
f 128/24/1 115/40/1 114/39/1
f 129/25/1 116/41/1 115/40/1
f 130/26/1 117/42/1 116/41/1
f 131/27/1 118/43/1 117/42/1
f 132/28/1 119/44/1 118/43/1
f 104/45/1 88/46/1 87/47/1
f 105/48/1 89/49/1 88/46/1
f 106/31/1 90/50/1 89/49/1
f 107/30/1 91/51/1 90/50/1
f 108/33/1 92/52/1 91/51/1
f 109/34/1 93/53/1 92/52/1
f 110/35/1 94/54/1 93/53/1
f 111/36/1 95/55/1 94/54/1
f 112/37/1 96/56/1 95/55/1
f 113/38/1 97/57/1 96/56/1
f 114/39/1 98/58/1 97/57/1
f 115/40/1 99/59/1 98/58/1
f 116/41/1 100/60/1 99/59/1
f 117/42/1 101/61/1 100/60/1
f 118/43/1 102/62/1 101/61/1
f 86/63/1 69/64/1 68/65/1
f 87/47/1 70/66/1 69/64/1
f 88/46/1 71/67/1 70/66/1
f 89/49/1 72/68/1 71/67/1
f 90/50/1 73/69/1 72/68/1
f 91/51/1 74/70/1 73/69/1
f 92/52/1 75/71/1 74/70/1
f 93/53/1 76/72/1 75/71/1
f 94/54/1 77/73/1 76/72/1
f 95/55/1 78/74/1 77/73/1
f 96/56/1 79/75/1 78/74/1
f 97/57/1 80/76/1 79/75/1
f 98/58/1 81/77/1 80/76/1
f 99/59/1 82/78/1 81/77/1
f 100/60/1 83/79/1 82/78/1
f 101/61/1 84/80/1 83/79/1
f 102/62/1 85/81/1 84/80/1
f 68/65/1 51/82/1 50/83/1
f 69/64/1 52/84/1 51/82/1
f 70/66/1 53/85/1 52/84/1
f 71/67/1 54/86/1 53/85/1
f 72/68/1 55/87/1 54/86/1
f 73/69/1 56/88/1 55/87/1
f 74/70/1 57/89/1 56/88/1
f 75/71/1 58/90/1 57/89/1
f 76/72/1 59/91/1 58/90/1
f 77/73/1 60/92/1 59/91/1
f 78/74/1 61/93/1 60/92/1
f 79/75/1 62/94/1 61/93/1
f 80/76/1 63/95/1 62/94/1
f 81/77/1 64/96/1 63/95/1
f 82/78/1 65/97/1 64/96/1
f 83/79/1 66/98/1 65/97/1
f 84/80/1 67/99/1 66/98/1
f 51/82/1 35/100/1 34/101/1
f 52/84/1 36/102/1 35/100/1
f 53/85/1 37/103/1 36/102/1
f 54/86/1 38/104/1 37/103/1
f 55/87/1 39/105/1 38/104/1
f 56/88/1 40/106/1 39/105/1
f 57/89/1 41/107/1 40/106/1
f 58/90/1 42/108/1 41/107/1
f 59/91/1 43/109/1 42/108/1
f 60/92/1 44/110/1 43/109/1
f 61/93/1 45/111/1 44/110/1
f 62/94/1 46/112/1 45/111/1
f 63/95/1 47/113/1 46/112/1
f 64/96/1 48/114/1 47/113/1
f 65/97/1 49/115/1 48/114/1
f 36/102/1 21/116/1 20/117/1
f 37/103/1 22/118/1 21/116/1
f 38/104/1 23/119/1 22/118/1
f 39/105/1 24/120/1 23/119/1
f 40/106/1 25/121/1 24/120/1
f 41/107/1 26/122/1 25/121/1
f 42/108/1 27/123/1 26/122/1
f 43/109/1 28/124/1 27/123/1
f 44/110/1 29/125/1 28/124/1
f 45/111/1 30/126/1 29/125/1
f 46/112/1 31/127/1 30/126/1
f 47/113/1 32/128/1 31/127/1
f 48/114/1 33/129/1 32/128/1
f 22/118/1 10/130/1 9/131/1
f 23/119/1 11/132/1 10/130/1
f 24/120/1 12/133/1 11/132/1
f 25/121/1 13/134/1 12/133/1
f 26/122/1 14/135/1 13/134/1
f 27/123/1 15/136/1 14/135/1
f 28/124/1 16/137/1 15/136/1
f 29/125/1 17/138/1 16/137/1
f 30/126/1 18/139/1 17/138/1
f 31/127/1 19/140/1 18/139/1
f 11/132/1 2/141/1 1/142/1
f 12/133/1 3/143/1 2/141/1
f 13/134/1 4/144/1 3/143/1
f 14/135/1 5/145/1 4/144/1
f 15/136/1 6/146/1 5/145/1
f 16/137/1 7/147/1 6/146/1
f 17/138/1 8/148/1 7/147/1
f 145/1/1 146/4/1 137/2/1
f 146/4/1 147/6/1 138/5/1
f 147/6/1 148/8/1 139/7/1
f 148/8/1 149/10/1 140/9/1
f 149/10/1 150/12/1 141/11/1
f 150/12/1 151/14/1 142/13/1
f 151/14/1 152/149/1 143/15/1
f 134/16/1 135/19/1 123/17/1
f 135/19/1 136/3/1 124/20/1
f 136/3/1 137/2/1 125/21/1
f 137/2/1 138/5/1 126/22/1
f 138/5/1 139/7/1 127/23/1
f 139/7/1 140/9/1 128/24/1
f 140/9/1 141/11/1 129/25/1
f 141/11/1 142/13/1 130/26/1
f 142/13/1 143/15/1 131/27/1
f 143/15/1 144/150/1 132/28/1
f 120/29/1 121/32/1 107/30/1
f 121/32/1 122/18/1 108/33/1
f 122/18/1 123/17/1 109/34/1
f 123/17/1 124/20/1 110/35/1
f 124/20/1 125/21/1 111/36/1
f 125/21/1 126/22/1 112/37/1
f 126/22/1 127/23/1 113/38/1
f 127/23/1 128/24/1 114/39/1
f 128/24/1 129/25/1 115/40/1
f 129/25/1 130/26/1 116/41/1
f 130/26/1 131/27/1 117/42/1
f 131/27/1 132/28/1 118/43/1
f 132/28/1 133/151/1 119/44/1
f 104/45/1 105/48/1 88/46/1
f 105/48/1 106/31/1 89/49/1
f 106/31/1 107/30/1 90/50/1
f 107/30/1 108/33/1 91/51/1
f 108/33/1 109/34/1 92/52/1
f 109/34/1 110/35/1 93/53/1
f 110/35/1 111/36/1 94/54/1
f 111/36/1 112/37/1 95/55/1
f 112/37/1 113/38/1 96/56/1
f 113/38/1 114/39/1 97/57/1
f 114/39/1 115/40/1 98/58/1
f 115/40/1 116/41/1 99/59/1
f 116/41/1 117/42/1 100/60/1
f 117/42/1 118/43/1 101/61/1
f 118/43/1 119/44/1 102/62/1
f 86/63/1 87/47/1 69/64/1
f 87/47/1 88/46/1 70/66/1
f 88/46/1 89/49/1 71/67/1
f 89/49/1 90/50/1 72/68/1
f 90/50/1 91/51/1 73/69/1
f 91/51/1 92/52/1 74/70/1
f 92/52/1 93/53/1 75/71/1
f 93/53/1 94/54/1 76/72/1
f 94/54/1 95/55/1 77/73/1
f 95/55/1 96/56/1 78/74/1
f 96/56/1 97/57/1 79/75/1
f 97/57/1 98/58/1 80/76/1
f 98/58/1 99/59/1 81/77/1
f 99/59/1 100/60/1 82/78/1
f 100/60/1 101/61/1 83/79/1
f 101/61/1 102/62/1 84/80/1
f 102/62/1 103/152/1 85/81/1
f 68/65/1 69/64/1 51/82/1
f 69/64/1 70/66/1 52/84/1
f 70/66/1 71/67/1 53/85/1
f 71/67/1 72/68/1 54/86/1
f 72/68/1 73/69/1 55/87/1
f 73/69/1 74/70/1 56/88/1
f 74/70/1 75/71/1 57/89/1
f 75/71/1 76/72/1 58/90/1
f 76/72/1 77/73/1 59/91/1
f 77/73/1 78/74/1 60/92/1
f 78/74/1 79/75/1 61/93/1
f 79/75/1 80/76/1 62/94/1
f 80/76/1 81/77/1 63/95/1
f 81/77/1 82/78/1 64/96/1
f 82/78/1 83/79/1 65/97/1
f 83/79/1 84/80/1 66/98/1
f 84/80/1 85/81/1 67/99/1
f 51/82/1 52/84/1 35/100/1
f 52/84/1 53/85/1 36/102/1
f 53/85/1 54/86/1 37/103/1
f 54/86/1 55/87/1 38/104/1
f 55/87/1 56/88/1 39/105/1
f 56/88/1 57/89/1 40/106/1
f 57/89/1 58/90/1 41/107/1
f 58/90/1 59/91/1 42/108/1
f 59/91/1 60/92/1 43/109/1
f 60/92/1 61/93/1 44/110/1
f 61/93/1 62/94/1 45/111/1
f 62/94/1 63/95/1 46/112/1
f 63/95/1 64/96/1 47/113/1
f 64/96/1 65/97/1 48/114/1
f 65/97/1 66/98/1 49/115/1
f 36/102/1 37/103/1 21/116/1
f 37/103/1 38/104/1 22/118/1
f 38/104/1 39/105/1 23/119/1
f 39/105/1 40/106/1 24/120/1
f 40/106/1 41/107/1 25/121/1
f 41/107/1 42/108/1 26/122/1
f 42/108/1 43/109/1 27/123/1
f 43/109/1 44/110/1 28/124/1
f 44/110/1 45/111/1 29/125/1
f 45/111/1 46/112/1 30/126/1
f 46/112/1 47/113/1 31/127/1
f 47/113/1 48/114/1 32/128/1
f 48/114/1 49/115/1 33/129/1
f 22/118/1 23/119/1 10/130/1
f 23/119/1 24/120/1 11/132/1
f 24/120/1 25/121/1 12/133/1
f 25/121/1 26/122/1 13/134/1
f 26/122/1 27/123/1 14/135/1
f 27/123/1 28/124/1 15/136/1
f 28/124/1 29/125/1 16/137/1
f 29/125/1 30/126/1 17/138/1
f 30/126/1 31/127/1 18/139/1
f 31/127/1 32/128/1 19/140/1
f 11/132/1 12/133/1 2/141/1
f 12/133/1 13/134/1 3/143/1
f 13/134/1 14/135/1 4/144/1
f 14/135/1 15/136/1 5/145/1
f 15/136/1 16/137/1 6/146/1
f 16/137/1 17/138/1 7/147/1
f 17/138/1 18/139/1 8/148/1
