# Blender v3.1.2 OBJ File: 'enemies.blend'
# www.blender.org
mtllib fire01.mtl
o fire01_Plane.013
v 0.250000 0.000000 -0.000000
v 0.250000 0.000000 0.062500
v 0.250000 0.000000 0.125000
v 0.250000 0.000000 0.187500
v 0.187500 0.000000 -0.250000
v 0.187500 0.000000 -0.187500
v 0.187500 0.000000 -0.125000
v 0.187500 0.000000 -0.062500
v 0.187500 0.000000 -0.000000
v 0.187500 0.000000 0.062500
v 0.187500 0.000000 0.125000
v 0.187500 0.000000 0.187500
v 0.187500 0.000000 0.250000
v 0.125000 0.000000 -0.312500
v 0.125000 0.000000 -0.250000
v 0.125000 0.000000 -0.187500
v 0.125000 0.000000 -0.125000
v 0.125000 0.000000 -0.062500
v 0.125000 0.000000 -0.000000
v 0.125000 0.000000 0.062500
v 0.125000 0.000000 0.125000
v 0.125000 0.000000 0.187500
v 0.125000 0.000000 0.250000
v 0.125000 0.000000 0.312500
v 0.062500 0.000000 -0.375000
v 0.062500 0.000000 -0.312500
v 0.062500 0.000000 -0.250000
v 0.062500 0.000000 -0.187500
v 0.062500 0.000000 -0.125000
v 0.062500 0.000000 -0.062500
v 0.062500 0.000000 -0.000000
v 0.062500 0.000000 0.062500
v 0.062500 0.000000 0.125000
v 0.062500 0.000000 0.187500
v 0.062500 0.000000 0.250000
v 0.062500 0.000000 0.312500
v -0.000000 0.000000 -0.375000
v -0.000000 0.000000 -0.312500
v -0.000000 0.000000 -0.250000
v -0.000000 0.000000 -0.187500
v -0.000000 0.000000 -0.125000
v -0.000000 0.000000 -0.062500
v 0.000000 0.000000 0.000000
v 0.000000 0.000000 0.062500
v 0.000000 0.000000 0.125000
v 0.000000 0.000000 0.187500
v 0.000000 0.000000 0.250000
v 0.000000 0.000000 0.312500
v -0.062500 0.000000 -0.312500
v -0.062500 0.000000 -0.250000
v -0.062500 0.000000 -0.187500
v -0.062500 0.000000 -0.125000
v -0.062500 0.000000 -0.062500
v -0.062500 0.000000 0.000000
v -0.062500 0.000000 0.062500
v -0.062500 0.000000 0.125000
v -0.062500 0.000000 0.187500
v -0.062500 0.000000 0.250000
v -0.062500 0.000000 0.312500
v -0.125000 0.000000 -0.250000
v -0.125000 0.000000 -0.187500
v -0.125000 0.000000 -0.125000
v -0.125000 0.000000 -0.062500
v -0.125000 0.000000 0.000000
v -0.125000 0.000000 0.062500
v -0.125000 0.000000 0.125000
v -0.125000 0.000000 0.187500
v -0.125000 0.000000 0.250000
v -0.125000 0.000000 0.312500
v -0.187500 0.000000 -0.250000
v -0.187500 0.000000 -0.187500
v -0.187500 0.000000 -0.125000
v -0.187500 0.000000 -0.062500
v -0.187500 0.000000 0.000000
v -0.187500 0.000000 0.062500
v -0.187500 0.000000 0.125000
v -0.187500 0.000000 0.187500
v -0.187500 0.000000 0.250000
v -0.187500 0.000000 0.312500
v -0.250000 0.000000 -0.187500
v -0.250000 0.000000 -0.125000
v -0.250000 0.000000 -0.062500
v -0.250000 0.000000 0.000000
v -0.250000 0.000000 0.062500
v -0.250000 0.000000 0.125000
v -0.250000 0.000000 0.187500
v -0.250000 0.000000 0.250000
v -0.312500 0.000000 -0.125000
v -0.312500 0.000000 -0.062500
v -0.312500 0.000000 0.000000
v -0.312500 0.000000 0.062500
v -0.312500 0.000000 0.125000
v -0.312500 0.000000 0.187500
v -0.375000 0.000000 0.000000
v -0.375000 0.000000 0.062500
vt 0.312518 0.484377
vt 0.343762 0.453134
vt 0.343762 0.484377
vt 0.343762 0.546865
vt 0.375006 0.515621
vt 0.375006 0.546865
vt 0.343762 0.515621
vt 0.375006 0.484377
vt 0.375006 0.453134
vt 0.375006 0.421890
vt 0.343762 0.421890
vt 0.375006 0.390646
vt 0.375006 0.578109
vt 0.406249 0.546865
vt 0.406249 0.578109
vt 0.406249 0.515621
vt 0.406249 0.484377
vt 0.406249 0.453134
vt 0.406249 0.421890
vt 0.406249 0.390646
vt 0.406249 0.359402
vt 0.406249 0.609352
vt 0.437493 0.578109
vt 0.437493 0.609352
vt 0.437493 0.546865
vt 0.437493 0.515621
vt 0.437493 0.484377
vt 0.437493 0.453134
vt 0.437493 0.421890
vt 0.437493 0.390646
vt 0.437493 0.359402
vt 0.437493 0.328159
vt 0.468737 0.578109
vt 0.468737 0.609352
vt 0.468737 0.546865
vt 0.468737 0.515621
vt 0.468737 0.484377
vt 0.468737 0.453134
vt 0.468737 0.421890
vt 0.468737 0.390646
vt 0.468737 0.359402
vt 0.468737 0.328159
vt 0.468737 0.640596
vt 0.499980 0.609352
vt 0.499980 0.640596
vt 0.499980 0.578109
vt 0.499980 0.546865
vt 0.499980 0.515621
vt 0.499980 0.484377
vt 0.499980 0.453134
vt 0.499980 0.421890
vt 0.499980 0.390646
vt 0.499980 0.359402
vt 0.499980 0.328159
vt 0.499980 0.671840
vt 0.531224 0.640596
vt 0.531224 0.671840
vt 0.531224 0.609352
vt 0.531224 0.578109
vt 0.531224 0.546865
vt 0.531224 0.515621
vt 0.531224 0.484377
vt 0.531224 0.453134
vt 0.531224 0.421890
vt 0.531224 0.390646
vt 0.531224 0.359402
vt 0.531224 0.328159
vt 0.562468 0.609352
vt 0.562468 0.640596
vt 0.562468 0.578109
vt 0.562468 0.546865
vt 0.562468 0.515621
vt 0.562468 0.484377
vt 0.562468 0.453134
vt 0.562468 0.421890
vt 0.562468 0.390646
vt 0.562468 0.359402
vt 0.562468 0.328159
vt 0.593712 0.578109
vt 0.593712 0.609352
vt 0.593712 0.546865
vt 0.593712 0.515621
vt 0.593712 0.484377
vt 0.593712 0.453134
vt 0.593712 0.421890
vt 0.593712 0.390646
vt 0.593712 0.359402
vt 0.624955 0.453134
vt 0.624955 0.484377
vt 0.624955 0.421890
vt 0.624955 0.390646
vt 0.312518 0.453134
vt 0.343762 0.390646
vt 0.375006 0.359402
vt 0.406249 0.328159
vn 0.0000 1.0000 0.0000
g fire01_Plane.013_Material.016
usemtl Material.016
s off
f 94/1/1 91/2/1 90/3/1
f 88/4/1 82/5/1 81/6/1
f 89/7/1 83/8/1 82/5/1
f 90/3/1 84/9/1 83/8/1
f 91/2/1 85/10/1 84/9/1
f 92/11/1 86/12/1 85/10/1
f 80/13/1 72/14/1 71/15/1
f 81/6/1 73/16/1 72/14/1
f 82/5/1 74/17/1 73/16/1
f 83/8/1 75/18/1 74/17/1
f 84/9/1 76/19/1 75/18/1
f 85/10/1 77/20/1 76/19/1
f 86/12/1 78/21/1 77/20/1
f 70/22/1 61/23/1 60/24/1
f 71/15/1 62/25/1 61/23/1
f 72/14/1 63/26/1 62/25/1
f 73/16/1 64/27/1 63/26/1
f 74/17/1 65/28/1 64/27/1
f 75/18/1 66/29/1 65/28/1
f 76/19/1 67/30/1 66/29/1
f 77/20/1 68/31/1 67/30/1
f 78/21/1 69/32/1 68/31/1
f 60/24/1 51/33/1 50/34/1
f 61/23/1 52/35/1 51/33/1
f 62/25/1 53/36/1 52/35/1
f 63/26/1 54/37/1 53/36/1
f 64/27/1 55/38/1 54/37/1
f 65/28/1 56/39/1 55/38/1
f 66/29/1 57/40/1 56/39/1
f 67/30/1 58/41/1 57/40/1
f 68/31/1 59/42/1 58/41/1
f 49/43/1 39/44/1 38/45/1
f 50/34/1 40/46/1 39/44/1
f 51/33/1 41/47/1 40/46/1
f 52/35/1 42/48/1 41/47/1
f 53/36/1 43/49/1 42/48/1
f 54/37/1 44/50/1 43/49/1
f 55/38/1 45/51/1 44/50/1
f 56/39/1 46/52/1 45/51/1
f 57/40/1 47/53/1 46/52/1
f 58/41/1 48/54/1 47/53/1
f 37/55/1 26/56/1 25/57/1
f 38/45/1 27/58/1 26/56/1
f 39/44/1 28/59/1 27/58/1
f 40/46/1 29/60/1 28/59/1
f 41/47/1 30/61/1 29/60/1
f 42/48/1 31/62/1 30/61/1
f 43/49/1 32/63/1 31/62/1
f 44/50/1 33/64/1 32/63/1
f 45/51/1 34/65/1 33/64/1
f 46/52/1 35/66/1 34/65/1
f 47/53/1 36/67/1 35/66/1
f 26/56/1 15/68/1 14/69/1
f 27/58/1 16/70/1 15/68/1
f 28/59/1 17/71/1 16/70/1
f 29/60/1 18/72/1 17/71/1
f 30/61/1 19/73/1 18/72/1
f 31/62/1 20/74/1 19/73/1
f 32/63/1 21/75/1 20/74/1
f 33/64/1 22/76/1 21/75/1
f 34/65/1 23/77/1 22/76/1
f 35/66/1 24/78/1 23/77/1
f 15/68/1 6/79/1 5/80/1
f 16/70/1 7/81/1 6/79/1
f 17/71/1 8/82/1 7/81/1
f 18/72/1 9/83/1 8/82/1
f 19/73/1 10/84/1 9/83/1
f 20/74/1 11/85/1 10/84/1
f 21/75/1 12/86/1 11/85/1
f 22/76/1 13/87/1 12/86/1
f 9/83/1 2/88/1 1/89/1
f 10/84/1 3/90/1 2/88/1
f 11/85/1 4/91/1 3/90/1
f 94/1/1 95/92/1 91/2/1
f 88/4/1 89/7/1 82/5/1
f 89/7/1 90/3/1 83/8/1
f 90/3/1 91/2/1 84/9/1
f 91/2/1 92/11/1 85/10/1
f 92/11/1 93/93/1 86/12/1
f 80/13/1 81/6/1 72/14/1
f 81/6/1 82/5/1 73/16/1
f 82/5/1 83/8/1 74/17/1
f 83/8/1 84/9/1 75/18/1
f 84/9/1 85/10/1 76/19/1
f 85/10/1 86/12/1 77/20/1
f 86/12/1 87/94/1 78/21/1
f 70/22/1 71/15/1 61/23/1
f 71/15/1 72/14/1 62/25/1
f 72/14/1 73/16/1 63/26/1
f 73/16/1 74/17/1 64/27/1
f 74/17/1 75/18/1 65/28/1
f 75/18/1 76/19/1 66/29/1
f 76/19/1 77/20/1 67/30/1
f 77/20/1 78/21/1 68/31/1
f 78/21/1 79/95/1 69/32/1
f 60/24/1 61/23/1 51/33/1
f 61/23/1 62/25/1 52/35/1
f 62/25/1 63/26/1 53/36/1
f 63/26/1 64/27/1 54/37/1
f 64/27/1 65/28/1 55/38/1
f 65/28/1 66/29/1 56/39/1
f 66/29/1 67/30/1 57/40/1
f 67/30/1 68/31/1 58/41/1
f 68/31/1 69/32/1 59/42/1
f 49/43/1 50/34/1 39/44/1
f 50/34/1 51/33/1 40/46/1
f 51/33/1 52/35/1 41/47/1
f 52/35/1 53/36/1 42/48/1
f 53/36/1 54/37/1 43/49/1
f 54/37/1 55/38/1 44/50/1
f 55/38/1 56/39/1 45/51/1
f 56/39/1 57/40/1 46/52/1
f 57/40/1 58/41/1 47/53/1
f 58/41/1 59/42/1 48/54/1
f 37/55/1 38/45/1 26/56/1
f 38/45/1 39/44/1 27/58/1
f 39/44/1 40/46/1 28/59/1
f 40/46/1 41/47/1 29/60/1
f 41/47/1 42/48/1 30/61/1
f 42/48/1 43/49/1 31/62/1
f 43/49/1 44/50/1 32/63/1
f 44/50/1 45/51/1 33/64/1
f 45/51/1 46/52/1 34/65/1
f 46/52/1 47/53/1 35/66/1
f 47/53/1 48/54/1 36/67/1
f 26/56/1 27/58/1 15/68/1
f 27/58/1 28/59/1 16/70/1
f 28/59/1 29/60/1 17/71/1
f 29/60/1 30/61/1 18/72/1
f 30/61/1 31/62/1 19/73/1
f 31/62/1 32/63/1 20/74/1
f 32/63/1 33/64/1 21/75/1
f 33/64/1 34/65/1 22/76/1
f 34/65/1 35/66/1 23/77/1
f 35/66/1 36/67/1 24/78/1
f 15/68/1 16/70/1 6/79/1
f 16/70/1 17/71/1 7/81/1
f 17/71/1 18/72/1 8/82/1
f 18/72/1 19/73/1 9/83/1
f 19/73/1 20/74/1 10/84/1
f 20/74/1 21/75/1 11/85/1
f 21/75/1 22/76/1 12/86/1
f 22/76/1 23/77/1 13/87/1
f 9/83/1 10/84/1 2/88/1
f 10/84/1 11/85/1 3/90/1
f 11/85/1 12/86/1 4/91/1
