# Blender v3.1.2 OBJ File: 'enemies.blend'
# www.blender.org
mtllib handle.mtl
o handle_Plane.014
v 0.125000 0.000000 -0.312500
v 0.125000 0.000000 -0.250000
v 0.125000 0.000000 -0.187500
v 0.125000 0.000000 -0.125000
v 0.125000 0.000000 -0.062500
v 0.125000 0.000000 -0.000000
v 0.125000 0.000000 0.062500
v 0.125000 0.000000 0.125000
v 0.125000 0.000000 0.187500
v 0.125000 0.000000 0.250000
v 0.125000 0.000000 0.312500
v 0.125000 0.000000 0.375000
v 0.125000 0.000000 0.437500
v 0.125000 0.000000 0.500000
v 0.125000 0.000000 0.562500
v 0.125000 0.000000 0.625000
v 0.125000 0.000000 0.687500
v 0.125000 0.000000 0.750000
v 0.125000 0.000000 0.812500
v 0.062500 0.000000 -0.375000
v 0.062500 0.000000 -0.312500
v 0.062500 0.000000 -0.250000
v 0.062500 0.000000 -0.187500
v 0.062500 0.000000 -0.125000
v 0.062500 0.000000 -0.062500
v 0.062500 0.000000 -0.000000
v 0.062500 0.000000 0.062500
v 0.062500 0.000000 0.125000
v 0.062500 0.000000 0.187500
v 0.062500 0.000000 0.250000
v 0.062500 0.000000 0.312500
v 0.062500 0.000000 0.375000
v 0.062500 0.000000 0.437500
v 0.062500 0.000000 0.500000
v 0.062500 0.000000 0.562500
v 0.062500 0.000000 0.625000
v 0.062500 0.000000 0.687500
v 0.062500 0.000000 0.750000
v 0.062500 0.000000 0.812500
v 0.062500 0.000000 0.875000
v -0.000000 0.000000 -0.375000
v -0.000000 0.000000 -0.312500
v -0.000000 0.000000 -0.250000
v -0.000000 0.000000 -0.187500
v -0.000000 0.000000 -0.125000
v -0.000000 0.000000 -0.062500
v 0.000000 0.000000 0.000000
v 0.000000 0.000000 0.062500
v 0.000000 0.000000 0.125000
v 0.000000 0.000000 0.187500
v 0.000000 0.000000 0.250000
v 0.000000 0.000000 0.312500
v 0.000000 0.000000 0.375000
v 0.000000 0.000000 0.437500
v 0.000000 0.000000 0.500000
v 0.000000 0.000000 0.562500
v 0.000000 0.000000 0.625000
v 0.000000 0.000000 0.687500
v 0.000000 0.000000 0.750000
v 0.000000 0.000000 0.812500
v 0.000000 0.000000 0.875000
v -0.062500 0.000000 -0.375000
v -0.062500 0.000000 -0.312500
v -0.062500 0.000000 -0.250000
v -0.062500 0.000000 -0.187500
v -0.062500 0.000000 -0.125000
v -0.062500 0.000000 -0.062500
v -0.062500 0.000000 0.000000
v -0.062500 0.000000 0.062500
v -0.062500 0.000000 0.125000
v -0.062500 0.000000 0.187500
v -0.062500 0.000000 0.250000
v -0.062500 0.000000 0.312500
v -0.062500 0.000000 0.375000
v -0.062500 0.000000 0.437500
v -0.062500 0.000000 0.500000
v -0.062500 0.000000 0.562500
v -0.062500 0.000000 0.625000
v -0.062500 0.000000 0.687500
v -0.062500 0.000000 0.750000
v -0.062500 0.000000 0.812500
v -0.062500 0.000000 0.875000
v -0.125000 0.000000 -0.375000
v -0.125000 0.000000 -0.312500
v -0.125000 0.000000 -0.250000
v -0.125000 0.000000 -0.187500
v -0.125000 0.000000 -0.125000
v -0.125000 0.000000 -0.062500
v -0.125000 0.000000 0.000000
v -0.125000 0.000000 0.062500
v -0.125000 0.000000 0.125000
v -0.125000 0.000000 0.187500
v -0.125000 0.000000 0.250000
v -0.125000 0.000000 0.312500
v -0.125000 0.000000 0.375000
v -0.125000 0.000000 0.437500
v -0.125000 0.000000 0.500000
v -0.125000 0.000000 0.562500
v -0.125000 0.000000 0.625000
v -0.125000 0.000000 0.687500
v -0.125000 0.000000 0.750000
v -0.125000 0.000000 0.812500
v -0.125000 0.000000 0.875000
v -0.187500 0.000000 -0.312500
v -0.187500 0.000000 -0.250000
v -0.187500 0.000000 -0.187500
v -0.187500 0.000000 -0.125000
v -0.187500 0.000000 -0.062500
v -0.187500 0.000000 0.000000
v -0.187500 0.000000 0.062500
v -0.187500 0.000000 0.125000
v -0.187500 0.000000 0.187500
v -0.187500 0.000000 0.250000
v -0.187500 0.000000 0.312500
v -0.187500 0.000000 0.375000
v -0.187500 0.000000 0.437500
v -0.187500 0.000000 0.500000
v -0.187500 0.000000 0.562500
v -0.187500 0.000000 0.625000
v -0.187500 0.000000 0.687500
v -0.187500 0.000000 0.750000
v -0.187500 0.000000 0.812500
vt 0.406269 0.656219
vt 0.437512 0.624975
vt 0.437512 0.656219
vt 0.406269 0.624975
vt 0.437512 0.593731
vt 0.406269 0.593731
vt 0.437512 0.562487
vt 0.406269 0.562487
vt 0.437512 0.531244
vt 0.406269 0.531244
vt 0.437512 0.500000
vt 0.406269 0.500000
vt 0.437512 0.468756
vt 0.406269 0.468756
vt 0.437512 0.437512
vt 0.406269 0.437512
vt 0.437512 0.406269
vt 0.406269 0.406269
vt 0.437512 0.375025
vt 0.406269 0.375025
vt 0.437512 0.343781
vt 0.406269 0.343781
vt 0.437512 0.312537
vt 0.406269 0.312537
vt 0.437512 0.281294
vt 0.406269 0.281294
vt 0.437512 0.250050
vt 0.406269 0.250050
vt 0.437512 0.218806
vt 0.406269 0.218806
vt 0.437512 0.187562
vt 0.406269 0.187562
vt 0.437512 0.156319
vt 0.406269 0.156319
vt 0.437512 0.125075
vt 0.406269 0.125075
vt 0.437512 0.093831
vt 0.437512 0.687462
vt 0.468756 0.656219
vt 0.468756 0.687462
vt 0.468756 0.624975
vt 0.468756 0.593731
vt 0.468756 0.562487
vt 0.468756 0.531244
vt 0.468756 0.500000
vt 0.468756 0.468756
vt 0.468756 0.437512
vt 0.468756 0.406269
vt 0.468756 0.375025
vt 0.468756 0.343781
vt 0.468756 0.312537
vt 0.468756 0.281294
vt 0.468756 0.250050
vt 0.468756 0.218806
vt 0.468756 0.187562
vt 0.468756 0.156319
vt 0.468756 0.125075
vt 0.468756 0.093831
vt 0.468756 0.062588
vt 0.500000 0.656219
vt 0.500000 0.687462
vt 0.500000 0.624975
vt 0.500000 0.593731
vt 0.500000 0.562487
vt 0.500000 0.531244
vt 0.500000 0.500000
vt 0.500000 0.468756
vt 0.500000 0.437512
vt 0.500000 0.406269
vt 0.500000 0.375025
vt 0.500000 0.343781
vt 0.500000 0.312537
vt 0.500000 0.281294
vt 0.500000 0.250050
vt 0.500000 0.218806
vt 0.500000 0.187562
vt 0.500000 0.156319
vt 0.500000 0.125075
vt 0.500000 0.093831
vt 0.500000 0.062588
vt 0.531244 0.656219
vt 0.531244 0.687462
vt 0.531244 0.624975
vt 0.531244 0.593731
vt 0.531244 0.562487
vt 0.531244 0.531244
vt 0.531244 0.500000
vt 0.531244 0.468756
vt 0.531244 0.437512
vt 0.531244 0.406269
vt 0.531244 0.375025
vt 0.531244 0.343781
vt 0.531244 0.312537
vt 0.531244 0.281294
vt 0.531244 0.250050
vt 0.531244 0.218806
vt 0.531244 0.187562
vt 0.531244 0.156319
vt 0.531244 0.125075
vt 0.531244 0.093831
vt 0.531244 0.062588
vt 0.562487 0.624975
vt 0.562487 0.656219
vt 0.562487 0.593731
vt 0.562487 0.562487
vt 0.562487 0.531244
vt 0.562487 0.500000
vt 0.562487 0.468756
vt 0.562487 0.437512
vt 0.562487 0.406269
vt 0.562487 0.375025
vt 0.562487 0.343781
vt 0.562487 0.312537
vt 0.562487 0.281294
vt 0.562487 0.250050
vt 0.562487 0.218806
vt 0.562487 0.187562
vt 0.562487 0.156319
vt 0.562487 0.125075
vt 0.562487 0.093831
vt 0.406269 0.093831
vt 0.437512 0.062588
vn 0.0000 1.0000 0.0000
g handle_Plane.014_Material.017
usemtl Material.017
s off
f 104/1/1 85/2/1 84/3/1
f 105/4/1 86/5/1 85/2/1
f 106/6/1 87/7/1 86/5/1
f 107/8/1 88/9/1 87/7/1
f 108/10/1 89/11/1 88/9/1
f 109/12/1 90/13/1 89/11/1
f 110/14/1 91/15/1 90/13/1
f 111/16/1 92/17/1 91/15/1
f 112/18/1 93/19/1 92/17/1
f 113/20/1 94/21/1 93/19/1
f 114/22/1 95/23/1 94/21/1
f 115/24/1 96/25/1 95/23/1
f 116/26/1 97/27/1 96/25/1
f 117/28/1 98/29/1 97/27/1
f 118/30/1 99/31/1 98/29/1
f 119/32/1 100/33/1 99/31/1
f 120/34/1 101/35/1 100/33/1
f 121/36/1 102/37/1 101/35/1
f 83/38/1 63/39/1 62/40/1
f 84/3/1 64/41/1 63/39/1
f 85/2/1 65/42/1 64/41/1
f 86/5/1 66/43/1 65/42/1
f 87/7/1 67/44/1 66/43/1
f 88/9/1 68/45/1 67/44/1
f 89/11/1 69/46/1 68/45/1
f 90/13/1 70/47/1 69/46/1
f 91/15/1 71/48/1 70/47/1
f 92/17/1 72/49/1 71/48/1
f 93/19/1 73/50/1 72/49/1
f 94/21/1 74/51/1 73/50/1
f 95/23/1 75/52/1 74/51/1
f 96/25/1 76/53/1 75/52/1
f 97/27/1 77/54/1 76/53/1
f 98/29/1 78/55/1 77/54/1
f 99/31/1 79/56/1 78/55/1
f 100/33/1 80/57/1 79/56/1
f 101/35/1 81/58/1 80/57/1
f 102/37/1 82/59/1 81/58/1
f 62/40/1 42/60/1 41/61/1
f 63/39/1 43/62/1 42/60/1
f 64/41/1 44/63/1 43/62/1
f 65/42/1 45/64/1 44/63/1
f 66/43/1 46/65/1 45/64/1
f 67/44/1 47/66/1 46/65/1
f 68/45/1 48/67/1 47/66/1
f 69/46/1 49/68/1 48/67/1
f 70/47/1 50/69/1 49/68/1
f 71/48/1 51/70/1 50/69/1
f 72/49/1 52/71/1 51/70/1
f 73/50/1 53/72/1 52/71/1
f 74/51/1 54/73/1 53/72/1
f 75/52/1 55/74/1 54/73/1
f 76/53/1 56/75/1 55/74/1
f 77/54/1 57/76/1 56/75/1
f 78/55/1 58/77/1 57/76/1
f 79/56/1 59/78/1 58/77/1
f 80/57/1 60/79/1 59/78/1
f 81/58/1 61/80/1 60/79/1
f 41/61/1 21/81/1 20/82/1
f 42/60/1 22/83/1 21/81/1
f 43/62/1 23/84/1 22/83/1
f 44/63/1 24/85/1 23/84/1
f 45/64/1 25/86/1 24/85/1
f 46/65/1 26/87/1 25/86/1
f 47/66/1 27/88/1 26/87/1
f 48/67/1 28/89/1 27/88/1
f 49/68/1 29/90/1 28/89/1
f 50/69/1 30/91/1 29/90/1
f 51/70/1 31/92/1 30/91/1
f 52/71/1 32/93/1 31/92/1
f 53/72/1 33/94/1 32/93/1
f 54/73/1 34/95/1 33/94/1
f 55/74/1 35/96/1 34/95/1
f 56/75/1 36/97/1 35/96/1
f 57/76/1 37/98/1 36/97/1
f 58/77/1 38/99/1 37/98/1
f 59/78/1 39/100/1 38/99/1
f 60/79/1 40/101/1 39/100/1
f 21/81/1 2/102/1 1/103/1
f 22/83/1 3/104/1 2/102/1
f 23/84/1 4/105/1 3/104/1
f 24/85/1 5/106/1 4/105/1
f 25/86/1 6/107/1 5/106/1
f 26/87/1 7/108/1 6/107/1
f 27/88/1 8/109/1 7/108/1
f 28/89/1 9/110/1 8/109/1
f 29/90/1 10/111/1 9/110/1
f 30/91/1 11/112/1 10/111/1
f 31/92/1 12/113/1 11/112/1
f 32/93/1 13/114/1 12/113/1
f 33/94/1 14/115/1 13/114/1
f 34/95/1 15/116/1 14/115/1
f 35/96/1 16/117/1 15/116/1
f 36/97/1 17/118/1 16/117/1
f 37/98/1 18/119/1 17/118/1
f 38/99/1 19/120/1 18/119/1
f 104/1/1 105/4/1 85/2/1
f 105/4/1 106/6/1 86/5/1
f 106/6/1 107/8/1 87/7/1
f 107/8/1 108/10/1 88/9/1
f 108/10/1 109/12/1 89/11/1
f 109/12/1 110/14/1 90/13/1
f 110/14/1 111/16/1 91/15/1
f 111/16/1 112/18/1 92/17/1
f 112/18/1 113/20/1 93/19/1
f 113/20/1 114/22/1 94/21/1
f 114/22/1 115/24/1 95/23/1
f 115/24/1 116/26/1 96/25/1
f 116/26/1 117/28/1 97/27/1
f 117/28/1 118/30/1 98/29/1
f 118/30/1 119/32/1 99/31/1
f 119/32/1 120/34/1 100/33/1
f 120/34/1 121/36/1 101/35/1
f 121/36/1 122/121/1 102/37/1
f 83/38/1 84/3/1 63/39/1
f 84/3/1 85/2/1 64/41/1
f 85/2/1 86/5/1 65/42/1
f 86/5/1 87/7/1 66/43/1
f 87/7/1 88/9/1 67/44/1
f 88/9/1 89/11/1 68/45/1
f 89/11/1 90/13/1 69/46/1
f 90/13/1 91/15/1 70/47/1
f 91/15/1 92/17/1 71/48/1
f 92/17/1 93/19/1 72/49/1
f 93/19/1 94/21/1 73/50/1
f 94/21/1 95/23/1 74/51/1
f 95/23/1 96/25/1 75/52/1
f 96/25/1 97/27/1 76/53/1
f 97/27/1 98/29/1 77/54/1
f 98/29/1 99/31/1 78/55/1
f 99/31/1 100/33/1 79/56/1
f 100/33/1 101/35/1 80/57/1
f 101/35/1 102/37/1 81/58/1
f 102/37/1 103/122/1 82/59/1
f 62/40/1 63/39/1 42/60/1
f 63/39/1 64/41/1 43/62/1
f 64/41/1 65/42/1 44/63/1
f 65/42/1 66/43/1 45/64/1
f 66/43/1 67/44/1 46/65/1
f 67/44/1 68/45/1 47/66/1
f 68/45/1 69/46/1 48/67/1
f 69/46/1 70/47/1 49/68/1
f 70/47/1 71/48/1 50/69/1
f 71/48/1 72/49/1 51/70/1
f 72/49/1 73/50/1 52/71/1
f 73/50/1 74/51/1 53/72/1
f 74/51/1 75/52/1 54/73/1
f 75/52/1 76/53/1 55/74/1
f 76/53/1 77/54/1 56/75/1
f 77/54/1 78/55/1 57/76/1
f 78/55/1 79/56/1 58/77/1
f 79/56/1 80/57/1 59/78/1
f 80/57/1 81/58/1 60/79/1
f 81/58/1 82/59/1 61/80/1
f 41/61/1 42/60/1 21/81/1
f 42/60/1 43/62/1 22/83/1
f 43/62/1 44/63/1 23/84/1
f 44/63/1 45/64/1 24/85/1
f 45/64/1 46/65/1 25/86/1
f 46/65/1 47/66/1 26/87/1
f 47/66/1 48/67/1 27/88/1
f 48/67/1 49/68/1 28/89/1
f 49/68/1 50/69/1 29/90/1
f 50/69/1 51/70/1 30/91/1
f 51/70/1 52/71/1 31/92/1
f 52/71/1 53/72/1 32/93/1
f 53/72/1 54/73/1 33/94/1
f 54/73/1 55/74/1 34/95/1
f 55/74/1 56/75/1 35/96/1
f 56/75/1 57/76/1 36/97/1
f 57/76/1 58/77/1 37/98/1
f 58/77/1 59/78/1 38/99/1
f 59/78/1 60/79/1 39/100/1
f 60/79/1 61/80/1 40/101/1
f 21/81/1 22/83/1 2/102/1
f 22/83/1 23/84/1 3/104/1
f 23/84/1 24/85/1 4/105/1
f 24/85/1 25/86/1 5/106/1
f 25/86/1 26/87/1 6/107/1
f 26/87/1 27/88/1 7/108/1
f 27/88/1 28/89/1 8/109/1
f 28/89/1 29/90/1 9/110/1
f 29/90/1 30/91/1 10/111/1
f 30/91/1 31/92/1 11/112/1
f 31/92/1 32/93/1 12/113/1
f 32/93/1 33/94/1 13/114/1
f 33/94/1 34/95/1 14/115/1
f 34/95/1 35/96/1 15/116/1
f 35/96/1 36/97/1 16/117/1
f 36/97/1 37/98/1 17/118/1
f 37/98/1 38/99/1 18/119/1
f 38/99/1 39/100/1 19/120/1
